<?xml version="1.0" encoding="UTF-8" standalone="no"?>
<!DOCTYPE svg PUBLIC "-//W3C//DTD SVG 1.1//EN" "http://www.w3.org/Graphics/SVG/1.1/DTD/svg11.dtd">
<svg width="100%" height="100%" viewBox="0 0 800 800" version="1.1" xmlns="http://www.w3.org/2000/svg" xmlns:xlink="http://www.w3.org/1999/xlink" xml:space="preserve" xmlns:serif="http://www.serif.com/" style="fill-rule:evenodd;clip-rule:evenodd;stroke-linejoin:round;stroke-miterlimit:2;">
    <g transform="matrix(1.048433,0,0,1.048433,2.643875,-36.148148)">
        <circle cx="379" cy="416" r="351" style="fill:rgb(255,205,0);"/>
    </g>
    <g transform="matrix(1,0,0,1,39.859947,103.149585)">
        <path d="M332.836,292.476C332.836,292.476 331.693,286.889 331.507,286.499C330.02,283.495 328.342,284.302 326.181,281.759C323.891,279.066 324.902,275.926 321.108,271.882C317.462,267.996 318.017,267.535 314.286,263.7C310.957,260.278 309.704,258.208 300.18,248.817C297.887,246.556 298.322,246.197 296.071,243.89C289.661,237.321 289.331,236.887 288.819,236.215C285.794,232.244 285.254,232.733 282.665,229.381C282.585,229.278 271.976,217.373 271.872,217.222C271.716,216.994 271.344,216.011 268.32,212.668C267.116,211.337 266.616,209.998 264.365,207.615C262.266,205.392 262.5,205.238 261.235,202.673C260.154,200.481 259.143,200.128 254.888,193.251C249.596,184.699 250.03,184.336 246.903,178.286C245.155,174.904 245.509,174.759 243.845,171.344C243.624,170.892 243.714,170.862 241.76,165.407C241.244,163.965 241.088,164.005 239.178,153.552C238.164,148.009 237.871,148.026 237.878,136.5C237.884,126.958 238.591,125.93 239.25,121.461C239.728,118.217 240.397,117.323 240.633,115.521C241.205,111.147 241.604,111.265 243.045,107.372C243.603,105.865 243.433,105.818 244.056,104.323C247.035,97.167 246.885,97.103 251.233,89.363C254.756,83.093 256.951,80.888 260.211,77.245C269.101,67.315 276.714,64.053 278.675,62.772C282.316,60.394 287.718,58.853 288.541,58.618C293.139,57.306 293.496,56.064 303.496,56.091C304.65,56.094 313.212,55.312 322.636,60.2C324.553,61.195 324.721,60.843 328.232,62.939C332.746,65.633 341.693,71.323 342.421,71.674C347.877,74.309 347.71,74.719 353.523,76.419C355.69,77.052 357.765,77.213 364.511,76.601C366.593,76.412 367.999,75.504 369.663,74.921C371.976,74.11 372.044,74.287 374.647,72.783C379.496,69.982 379.541,70.091 384.356,67.251C389.606,64.154 402.374,57.215 407.415,55.308C409.956,54.346 410.019,54.064 411.55,53.651C416.148,52.411 415.978,51.918 420.57,50.718C421.19,50.556 421.806,50.378 422.425,50.214C425.017,49.528 425.051,49.739 427.601,48.975C430.512,48.103 447.418,47.763 452.58,49.035C454.733,49.566 455.126,49.452 458.527,50.396C461.607,51.25 461.701,50.881 464.659,52.138C467.727,53.442 471.126,53.966 479.672,58.139C479.715,58.16 480.343,58.201 485.236,60.96C487.261,62.101 490.154,63.957 493.292,65.857C495.066,66.931 495.098,66.849 496.805,68.019C497.433,68.45 500.135,70.006 505.133,73.955C506.771,75.249 507.213,75.201 511.407,78.612C513.871,80.616 513.986,80.449 517.428,83.583C517.694,83.825 521.323,87.018 521.662,87.316C523.257,88.719 523.293,88.643 524.863,90.072C529.597,94.38 529.692,94.254 534.2,98.793C535.761,100.364 538.08,101.561 557.396,123.593C560.802,127.478 560.946,127.347 562.434,129.557C564.182,132.154 564.914,131.618 567.944,136.152C568.885,137.56 571.69,140.591 572.402,141.565C573.499,143.065 576.515,146.569 587.006,160.84C590.21,165.2 589.998,165.335 593.32,169.622C593.714,170.13 593.509,170.267 597.898,176.223C598.163,176.582 598.075,176.636 601.012,180.854C601.91,182.145 604.921,186.469 611.652,197.39C612.965,199.519 613.032,199.448 614.426,201.545C615.065,202.506 614.825,202.626 616.663,205.394C617.377,206.469 617.278,206.514 624.945,219.246C625.876,220.793 625.706,220.871 626.682,222.381C627.946,224.337 627.851,224.854 629.906,228.276C630.146,228.675 629.988,228.745 632.677,233.402C634.515,236.586 638.022,244.122 640.039,247.758C640.17,247.994 643.71,255.561 644.134,256.649C645.687,260.634 646.009,260.479 647.43,264.527C647.956,266.024 649.083,268.076 649.258,268.579C649.527,269.352 649.326,269.408 650.307,271.586C651.821,274.949 652.966,279.94 653.57,281.475C654.904,284.864 654.486,284.955 655.162,288.551C656.002,293.021 655.425,296.48 654.428,303.488C654.24,304.802 650.684,317.177 647.649,324.563C647.529,324.855 645.999,329.46 643.414,335.465C642.089,338.544 642.002,338.493 640.959,341.666C640.834,342.048 635.255,355.053 635.127,355.312C633.347,358.923 633.541,359.002 631.705,362.589C631.362,363.259 630.613,365.287 629.818,366.677C628.199,369.508 628.497,369.649 627.02,372.229C625.225,375.363 625.553,375.517 623.677,378.595C622.988,379.725 618.249,389.769 613.796,396.689C613.34,397.397 612.135,399.845 611.2,401.323C609.488,404.03 609.825,404.228 607.897,406.8C607.172,407.767 597.502,424.099 595.104,427.187C593.742,428.942 587.456,438.071 587.271,438.292C586.035,439.774 582.438,445.02 581.34,446.379C578.61,449.759 578.593,449.72 577.865,450.754C575.831,453.648 573.225,456.426 572.939,456.847C572.799,457.054 572.952,457.556 569.374,461.388C568.871,461.927 569.071,462.095 563.32,468.344C560.457,471.455 560.445,471.425 557.698,474.656C556.828,475.681 549.39,483.593 544.259,488.252C542.606,489.752 535.372,496.562 527.712,502.762C524.125,505.665 524.003,505.471 520.388,508.36C519.888,508.76 519.805,508.621 513.739,512.831C512.644,513.591 512.614,513.526 499.701,521.819C498.946,522.304 498.866,522.131 489.712,526.923C487.11,528.285 486.904,527.769 484.308,529.151C477.248,532.906 476.443,532.438 471.484,534.457C468.112,535.829 468.013,535.505 464.61,536.793C459.829,538.6 459.632,537.867 453.597,539.774C450.094,540.881 450.1,540.877 446.465,541.298C443.842,541.601 437.076,543.506 432.527,543.771C424.477,544.24 424.568,545.104 416.498,545.275C412.739,545.355 402.949,546.687 382.466,544.893C379,544.59 378.99,544.771 375.549,544.188C370.019,543.249 369.907,544.159 364.425,542.896C364.255,542.857 358.041,541.685 357.486,541.58C355.31,541.169 353.695,541.226 351.467,540.627C347.661,539.604 340.387,538.155 337.582,537.247C332.002,535.442 331.944,535.67 326.453,533.644C325.961,533.462 322.757,532.815 318.697,531.018C314.873,529.326 312.202,528.409 307.709,526.073C302.979,523.613 300.807,523.062 297.812,521.006C295.49,519.412 295.238,519.832 292.863,518.01C290.09,515.882 284.314,512.5 280.718,509.256C280.257,508.84 275.427,504.481 274.964,504.041C273.923,503.053 273.962,503.03 272.886,502.074C272.206,501.47 263.454,491.351 262.465,489.522C261.681,488.074 261.536,487.368 260.31,485.62C259.619,484.636 256.617,478.688 256.537,478.485C254.787,474.04 254.455,474.175 253.267,469.572C252.142,465.214 251.397,464.898 250.82,458.461C250.504,454.937 249.925,455.029 249.78,451.484C249.356,441.173 249.96,441.212 250.597,436.515C251.369,430.82 251.231,429.885 252.773,425.591C253.921,422.395 253.442,422.219 255.118,419.286C256.367,417.1 256.563,415.27 260.005,410.157C263.645,404.751 263.733,404.837 267.77,399.703C268.359,398.953 273.457,393.868 275.461,391.461C275.786,391.071 275.905,391.206 280.081,387.113C280.487,386.715 280.595,386.837 285.32,382.309C288.66,379.11 288.994,379.518 292.359,376.344C294.388,374.431 294.684,374.805 297.36,372.334C299.481,370.376 299.436,370.344 302.701,367.797C304.369,366.497 305.206,365.373 305.823,364.956C306.034,364.813 306.484,364.694 307.69,363.742C314.366,358.469 315.702,357.01 316.317,356.339C318.25,354.227 318.466,354.487 320.497,352.497C323.963,349.101 324.04,349.187 325.452,347.462C327.593,344.845 333.461,339.355 337.368,329.458C337.634,328.784 338.547,325.309 339.066,323.488L338.915,321.458C339.006,321.29 338.965,320.628 339.904,319.635C340.005,319.527 338.31,320.689 337.626,310.487C337.408,307.228 339.678,306.066 339.5,305.651C339.058,304.619 339.45,304.525 339.023,303.5C338.565,302.4 337.715,302.53 337.639,302.474C337.289,299.952 337.167,299.993 336.27,297.599C336.283,297.07 336.303,297.094 336.316,296.561C336.357,294.858 332.947,292.958 332.836,292.476ZM355.681,319.764C354.428,320.997 354.458,321.005 354.338,321.098C352.602,322.445 352.754,322.591 351.085,324.031C346.288,328.171 346.756,328.615 342.686,332.694C340.008,335.378 340.401,335.681 337.845,338.818C336.281,340.738 336.401,340.807 334.909,342.78C331.206,347.677 331.329,348.049 329.185,351.293C325.664,356.619 325.236,358.632 323.071,362.218C320.153,367.051 320.829,367.364 318.411,372.464C317.076,375.28 317.541,376.187 315.586,381.528C313.998,385.868 314.71,386.042 313.474,390.494C312.715,393.227 312.367,393.26 309.58,393.869C305.519,394.755 305.588,394.952 303.581,395.723C300.444,396.928 300.285,396.717 297.337,399.34C291.292,404.719 289.697,414.908 289.083,417.418C288.274,420.726 289.328,424.227 288.217,425.153C287.009,426.159 286.857,425.348 286.093,423.983C284.317,420.809 283.095,420.655 281.074,413.67C280.075,410.217 280.535,409.762 280.397,408.551C280.369,408.308 280.172,408.105 280.144,407.863C279.478,407.336 280.086,406.945 279.431,406.426C279.366,406.374 278.848,405.965 278.394,406.478C278.169,406.734 278.713,407.24 278.488,407.495C276.822,413.776 278.082,415.945 279.586,421.48C280.882,426.246 281.37,426.045 283.458,430.52C284.844,433.491 286.242,434.223 287.662,436.397C289.216,438.777 289.518,438.492 291.504,440.496C294.871,443.894 298.391,446.036 304.321,449.789C306.691,451.29 308.788,451.922 310.347,452.804C313.271,454.457 313.359,454.233 316.394,455.685C318.84,456.855 318.916,456.617 321.444,457.646C324.962,459.079 325.01,458.899 328.602,460.153C335.33,462.503 335.917,462.193 341.44,463.726C346.398,465.101 348.248,464.717 351.491,465.545C355.905,466.671 355.929,466.456 360.466,466.914C367.283,467.602 367.278,467.375 371.493,467.648C382.39,468.353 382.401,468.204 394.51,467.862C406.163,467.534 406.114,467.052 410.524,466.721C414.558,466.418 414.501,466.09 418.499,465.494C427.057,464.217 427.079,464.41 435.468,462.367C439.424,461.403 439.476,461.695 441.421,461.14C450.629,458.514 450.675,458.686 451.44,458.358C454.862,456.893 455.531,456.978 457.497,456.488C459.755,455.926 459.56,455.302 464.409,454.11C467.564,453.334 469.825,452.052 471.513,451.539C475.616,450.292 475.412,449.772 479.505,448.515C481.454,447.916 483.197,446.835 484.449,446.363C488.015,445.016 487.9,444.778 491.435,443.331C493.246,442.59 493.8,441.885 496.625,440.817C497.097,440.639 497.095,440.638 502.357,438.203C503.807,437.532 504.095,436.904 507.492,435.48C509.976,434.439 509.824,434.171 512.263,433.041C514.708,431.909 515.287,431.111 516.522,430.542C519.575,429.137 519.47,428.972 522.386,427.326C532.783,421.456 532.555,421.104 538.562,417.602C541.093,416.127 540.958,415.947 543.411,414.359C552.447,408.508 554.846,406.621 555.79,405.878C560.085,402.5 564.204,400.234 567.914,396.932C570.306,394.803 570.434,394.985 572.893,392.949C576.971,389.573 577.055,389.684 577.408,389.39C578.022,388.88 585.037,383.042 585.075,383.007C585.841,382.299 585.703,382.185 586.509,381.509C587.469,380.704 599.429,370.11 601.291,368.257C605.985,363.585 606.665,363.359 609.865,359.84C613.411,355.94 613.457,356.016 617.05,352.126C619.295,349.695 620.194,348.13 622.172,346.175C624.945,343.432 624.555,343.11 627.168,340.201C630.476,336.519 630.071,336.205 632.45,333.456C634.564,331.013 636.242,328.304 637.157,327.237C639.144,324.916 638.89,324.307 640.384,322.412C644.664,316.982 649.123,306.013 649.263,305.425C650.449,300.445 650.824,300.511 651.013,296.483C651.369,288.91 648.189,282.726 647.652,281.43C644.548,273.94 643.826,274.338 641.955,271.223C638.969,266.251 638.609,266.515 636.129,262.729C634.737,260.604 630.911,255.222 628.962,253.125C622.633,246.313 616.724,238.884 611.787,234.183C609.225,231.744 609.552,231.445 606.934,229.047C605.354,227.6 599.309,221.446 593.714,216.273C588.507,211.457 588.794,211.18 583.881,207.037C577.935,202.021 578.071,201.869 577.533,201.46C575.838,200.172 575.876,200.155 574.281,198.764C570.537,195.498 565.719,191.706 565.473,191.535C563.096,189.881 563.266,189.688 561.557,188.427C556.81,184.925 556.913,184.801 556.49,184.511C551.885,181.359 552.089,181.107 550.26,179.862C539.76,172.707 539.995,172.376 533.59,168.357C526.234,163.742 526.161,163.868 525.534,163.447C518.624,158.802 513.604,156.329 507.712,153.101C504.757,151.482 504.719,151.584 501.731,150.024C498.146,148.153 497.898,148.689 494.414,146.643C489.213,143.588 486.305,143.594 483.295,141.97C479.681,140.02 469.944,137.334 467.542,136.386C464.144,135.045 464.053,135.39 460.511,134.454C454.082,132.756 453.907,132.883 453.694,132.354C453.595,132.105 453.805,131.829 453.83,131.563C453.852,131.323 453.703,131.041 453.836,130.84C453.973,130.631 454.285,130.618 454.516,130.519C456.982,129.461 457.024,129.578 459.332,128.176C460.536,127.444 462.006,127.016 463.307,126.219C466.731,124.121 466.809,124.257 467.093,124.055C468.33,123.173 466.925,122.188 466.795,122.097C466.782,122.088 466.69,121.697 464.488,121.929C461.626,122.23 444.614,125.189 439.517,126.57C434.984,127.799 434.934,127.569 434.542,127.682C425.308,130.349 425.265,130.143 424.465,130.377C423.908,130.54 420.999,131.392 417.437,132.153C413.446,133.006 413.429,132.828 406.503,134.512C402.804,135.411 402.739,135.011 399.542,135.725C394.959,136.749 394.931,136.579 394.537,136.686C389.607,138.025 389.526,137.489 384.454,138.189C379.01,138.941 379.003,138.64 378.533,138.714C375.026,139.267 375.021,139.134 371.514,139.638C368.605,140.055 357.566,139.48 356.517,139.346C351.464,138.704 351.509,138.47 346.439,137.865C342.917,137.445 343.003,137.107 339.535,136.353C332.789,134.887 329.168,133.499 324.553,132.294C319.956,131.092 320.125,130.532 315.458,129.679C313.714,129.36 313.773,129.23 310.36,127.976C308.095,127.144 307.128,127.715 304.399,126.817C299.437,125.183 287.346,124.465 286.629,124.823C286.533,124.872 285.896,126.258 285.92,126.371C286.005,126.777 286.43,127.029 286.719,127.326C288.695,129.358 296.986,132.505 297.881,133.235C298.478,133.721 298.777,134.853 297.443,135.416C296.786,135.694 293.81,136.95 289.573,139.606C284.146,143.007 278.769,149.373 277.677,152.569C276.346,156.462 275.903,156.413 276.103,160.518C276.517,169.02 275.905,169.02 276.353,177.509C276.516,180.609 277.133,180.506 277.386,183.512C277.496,184.822 278.25,193.806 281.846,199.323C283.04,201.155 284.623,204.898 286.302,207.617C288.01,210.386 288.054,210.348 290.378,212.622C292.678,214.871 294.497,217.922 306.534,216.917C311.672,216.488 314.343,213.918 316.524,214.239C318.068,214.466 322.234,218.517 324.501,219.498C324.897,219.67 329.334,221.59 329.455,221.634C333.173,222.969 350.232,224.17 365.482,223.269C366.591,223.203 368.053,222.578 369.475,222.371C374.976,221.572 375.61,223.774 375.878,224.077C381.986,230.979 393.083,245.2 393.329,245.601C394.651,247.762 394.598,247.784 396.191,249.755C400.652,255.275 399.9,255.803 402.29,258.645C404.71,261.524 404.108,262.007 405.828,264.252C406.669,265.35 406.548,265.405 407.214,266.638C409.293,270.486 412.018,275.653 412.498,277.501C412.785,278.603 412.918,278.53 413.495,279.503C415.405,282.724 413.974,283.561 413.864,283.803C413.472,283.882 413.691,284.208 413.292,284.287C412.853,284.375 412.902,284.036 412.447,284.086L410.395,285.03C408.766,285.632 408.762,285.598 408.636,285.68C408.247,285.935 407.938,286.299 407.549,286.554C405.568,287.556 405.536,287.451 403.427,288.159C403.096,288.316 402.337,288.677 399.458,290.455C397.919,290.703 397.932,290.685 396.422,291.094C394.31,292.725 392.758,293.209 392.407,293.319C389.87,294.11 390.182,294.913 388.574,295.649C387.378,296.197 387.402,296.213 386.351,297.016C386.16,297.139 383.431,298.705 382.582,299.574C382.394,299.766 382.299,300.035 382.112,300.227C381.791,300.557 381.389,300.801 381.069,301.131C380.947,301.164 380.415,301.055 379.515,301.558C378.927,301.887 378.984,301.943 378.402,302.269C377.594,302.964 377.228,303.374 373.594,305.647C368.89,308.59 369.149,308.912 365.554,311.563C364.096,312.639 364.181,312.716 363.051,314.148L361.553,314.643L359.764,315.827C357.855,317.409 357.91,317.456 356.345,319.381L355.681,319.764Z" style="fill:rgb(0,111,185);"/>
    </g>
    <g transform="matrix(1,0,0,1,39.859947,103.149585)">
        <path d="M413.864,283.803C413.974,283.561 415.405,282.724 413.495,279.503C412.918,278.53 412.785,278.603 412.498,277.501C412.018,275.653 409.293,270.486 407.214,266.638C406.548,265.405 406.669,265.35 405.828,264.252C404.108,262.007 404.71,261.524 402.29,258.645C399.9,255.803 400.652,255.275 396.191,249.755C394.598,247.784 394.651,247.762 393.329,245.601C393.083,245.2 381.986,230.979 375.878,224.077C375.61,223.774 374.976,221.572 369.475,222.371C368.053,222.578 366.591,223.203 365.482,223.269C350.232,224.17 333.173,222.969 329.455,221.634C329.334,221.59 324.897,219.67 324.501,219.498C322.234,218.517 318.068,214.466 316.524,214.239C314.343,213.918 311.672,216.488 306.534,216.917C294.497,217.922 292.678,214.871 290.378,212.622C288.054,210.348 288.01,210.386 286.302,207.617C284.623,204.898 283.04,201.155 281.846,199.323C278.25,193.806 277.496,184.822 277.386,183.512C277.133,180.506 276.516,180.609 276.353,177.509C275.905,169.02 276.517,169.02 276.103,160.518C275.903,156.413 276.346,156.462 277.677,152.569C278.769,149.373 284.146,143.007 289.573,139.606C293.81,136.95 296.786,135.694 297.443,135.416C298.777,134.853 298.478,133.721 297.881,133.235C296.986,132.505 288.695,129.358 286.719,127.326C286.43,127.029 286.005,126.777 285.92,126.371C285.896,126.258 286.533,124.872 286.629,124.823C287.346,124.465 299.437,125.183 304.399,126.817C307.128,127.715 308.095,127.144 310.36,127.976C313.773,129.23 313.714,129.36 315.458,129.679C320.125,130.532 319.956,131.092 324.553,132.294C329.168,133.499 332.789,134.887 339.535,136.353C343.003,137.107 342.917,137.445 346.439,137.865C351.509,138.47 351.464,138.704 356.517,139.346C357.566,139.48 368.605,140.055 371.514,139.638C375.021,139.134 375.026,139.267 378.533,138.714C379.003,138.64 379.01,138.941 384.454,138.189C389.526,137.489 389.607,138.025 394.537,136.686C394.931,136.579 394.959,136.749 399.542,135.725C402.739,135.011 402.804,135.411 406.503,134.512C413.429,132.828 413.446,133.006 417.437,132.153C420.999,131.392 423.908,130.54 424.465,130.377C425.265,130.143 425.308,130.349 434.542,127.682C434.934,127.569 434.984,127.799 439.517,126.57C444.614,125.189 461.626,122.23 464.488,121.929C466.69,121.697 466.782,122.088 466.795,122.097C466.925,122.188 468.33,123.173 467.093,124.055C466.809,124.257 466.731,124.121 463.307,126.219C462.006,127.016 460.536,127.444 459.332,128.176C457.024,129.578 456.982,129.461 454.516,130.519C454.285,130.618 453.973,130.631 453.836,130.84C453.703,131.041 453.852,131.323 453.83,131.563C453.805,131.829 453.595,132.105 453.694,132.354C453.907,132.883 454.082,132.756 460.511,134.454C464.053,135.39 464.144,135.045 467.542,136.386C469.944,137.334 479.681,140.02 483.295,141.97C486.305,143.594 489.213,143.588 494.414,146.643C497.898,148.689 498.146,148.153 501.731,150.024C504.719,151.584 504.757,151.482 507.712,153.101C513.604,156.329 518.624,158.802 525.534,163.447C526.161,163.868 526.234,163.742 533.59,168.357C539.995,172.376 539.76,172.707 550.26,179.862C552.089,181.107 551.885,181.359 556.49,184.511C556.913,184.801 556.81,184.925 561.557,188.427C563.266,189.688 563.096,189.881 565.473,191.535C565.719,191.706 570.537,195.498 574.281,198.764C575.876,200.155 575.838,200.172 577.533,201.46C578.071,201.869 577.935,202.021 583.881,207.037C588.794,211.18 588.507,211.457 593.714,216.273C599.309,221.446 605.354,227.6 606.934,229.047C609.552,231.445 609.225,231.744 611.787,234.183C616.724,238.884 622.633,246.313 628.962,253.125C630.911,255.222 634.737,260.604 636.129,262.729C638.609,266.515 638.969,266.251 641.955,271.223C643.826,274.338 644.548,273.94 647.652,281.43C648.189,282.726 651.369,288.91 651.013,296.483C650.824,300.511 650.449,300.445 649.263,305.425C649.123,306.013 644.664,316.982 640.384,322.412C638.89,324.307 639.144,324.916 637.157,327.237C636.242,328.304 634.564,331.013 632.45,333.456C630.071,336.205 630.476,336.519 627.168,340.201C624.555,343.11 624.945,343.432 622.172,346.175C620.194,348.13 619.295,349.695 617.05,352.126C613.457,356.016 613.411,355.94 609.865,359.84C606.665,363.359 605.985,363.585 601.291,368.257C599.429,370.11 587.469,380.704 586.509,381.509C585.703,382.185 585.841,382.299 585.075,383.007C585.037,383.042 578.022,388.88 577.408,389.39C577.055,389.684 576.971,389.573 572.893,392.949C570.434,394.985 570.306,394.803 567.914,396.932C564.204,400.234 560.085,402.5 555.79,405.878C554.846,406.621 552.447,408.508 543.411,414.359C540.958,415.947 541.093,416.127 538.562,417.602C532.555,421.104 532.783,421.456 522.386,427.326C519.47,428.972 519.575,429.137 516.522,430.542C515.287,431.111 514.708,431.909 512.263,433.041C509.824,434.171 509.976,434.439 507.492,435.48C504.095,436.904 503.807,437.532 502.357,438.203C497.095,440.638 497.097,440.639 496.625,440.817C493.8,441.885 493.246,442.59 491.435,443.331C487.9,444.778 488.015,445.016 484.449,446.363C483.197,446.835 481.454,447.916 479.505,448.515C475.412,449.772 475.616,450.292 471.513,451.539C469.825,452.052 467.564,453.334 464.409,454.11C459.56,455.302 459.755,455.926 457.497,456.488C455.531,456.978 454.862,456.893 451.44,458.358C450.675,458.686 450.629,458.514 441.421,461.14C439.476,461.695 439.424,461.403 435.468,462.367C427.079,464.41 427.057,464.217 418.499,465.494C414.501,466.09 414.558,466.418 410.524,466.721C406.114,467.052 406.163,467.534 394.51,467.862C382.401,468.204 382.39,468.353 371.493,467.648C367.278,467.375 367.283,467.602 360.466,466.914C355.929,466.456 355.905,466.671 351.491,465.545C348.248,464.717 346.398,465.101 341.44,463.726C335.917,462.193 335.33,462.503 328.602,460.153C325.01,458.899 324.962,459.079 321.444,457.646C318.916,456.617 318.84,456.855 316.394,455.685C313.359,454.233 313.271,454.457 310.347,452.804C308.788,451.922 306.691,451.29 304.321,449.789C298.391,446.036 294.871,443.894 291.504,440.496C289.518,438.492 289.216,438.777 287.662,436.397C286.242,434.223 284.844,433.491 283.458,430.52C281.37,426.045 280.882,426.246 279.586,421.48C278.082,415.945 276.822,413.776 278.488,407.495L280.144,407.863C280.172,408.105 280.369,408.308 280.397,408.551C280.535,409.762 280.075,410.217 281.074,413.67C283.095,420.655 284.317,420.809 286.093,423.983C286.857,425.348 287.009,426.159 288.217,425.153C289.328,424.227 288.274,420.726 289.083,417.418C289.697,414.908 291.292,404.719 297.337,399.34C300.285,396.717 300.444,396.928 303.581,395.723C305.588,394.952 305.519,394.755 309.58,393.869C312.367,393.26 312.715,393.227 313.474,390.494C314.71,386.042 313.998,385.868 315.586,381.528C317.541,376.187 317.076,375.28 318.411,372.464C320.829,367.364 320.153,367.051 323.071,362.218C325.236,358.632 325.664,356.619 329.185,351.293C331.329,348.049 331.206,347.677 334.909,342.78C336.401,340.807 336.281,340.738 337.845,338.818C340.401,335.681 340.008,335.378 342.686,332.694C346.756,328.615 346.288,328.171 351.085,324.031C352.754,322.591 352.602,322.445 354.338,321.098C354.458,321.005 354.428,320.997 355.681,319.764L356.345,319.381C357.91,317.456 357.855,317.409 359.764,315.827L361.553,314.643L363.051,314.148C364.181,312.716 364.096,312.639 365.554,311.563C369.149,308.912 368.89,308.59 373.594,305.647C377.228,303.374 377.594,302.964 378.402,302.269C378.984,301.943 378.927,301.887 379.515,301.558C380.415,301.055 380.947,301.164 381.069,301.131C381.389,300.801 381.791,300.557 382.112,300.227C382.299,300.035 382.394,299.766 382.582,299.574C383.431,298.705 386.16,297.139 386.351,297.016C387.402,296.213 387.378,296.197 388.574,295.649C390.182,294.913 389.87,294.11 392.407,293.319C392.758,293.209 394.31,292.725 396.422,291.094C397.932,290.685 397.919,290.703 399.458,290.455C402.337,288.677 403.096,288.316 403.427,288.159C405.536,287.451 405.568,287.556 407.549,286.554C407.938,286.299 408.247,285.935 408.636,285.68C408.762,285.598 408.766,285.632 410.395,285.03L412.447,284.086C412.902,284.036 412.853,284.375 413.292,284.287C413.691,284.208 413.472,283.882 413.864,283.803ZM387.688,306.774C384.421,309.126 384.503,309.245 380.877,310.995C380.316,311.266 376.996,313.565 376.663,313.795C374.962,315.207 374.171,316.387 373.178,317.081C371.939,317.948 371.912,317.886 370.667,318.74C367.86,320.5 366.194,322.675 363.157,325.091C357.6,329.511 355.507,332.05 347.683,340.651C347.187,341.196 347.358,341.329 341.939,347.854C341.2,348.745 330.549,364.051 326.094,377.367C323.168,386.117 322.558,390.326 322.391,391.481C322.166,393.035 320.829,399.186 320.798,409.507C320.79,412.28 321.355,412.852 324.098,415.864C326.422,418.416 327.119,416.758 335.432,417.992C339.998,418.669 340.061,418.162 344.552,419.201C346.887,419.742 348.654,419.621 352.535,420.24C356.038,420.798 356.049,420.609 359.557,421.141C360.038,421.214 361.534,421.44 365.443,422.669C367.059,423.176 367.675,423.902 370.439,423.194C376.558,421.625 379.268,422.112 396.502,422.22C411.909,422.317 414.074,422.877 415.552,423.26C418.283,423.967 419.586,424.49 421.448,423.408C428.069,419.561 428.329,420.174 435.606,417.861C438.881,416.82 450.624,414.899 452.515,414.816C460.134,414.478 463.892,414.362 471.614,417.185C475.301,418.533 475.893,420.569 478.584,417.584C479.691,416.356 485.891,410.489 491.557,407.604C492.374,407.188 501.625,401.205 514.391,403.943C519.001,404.931 518.992,404.975 523.296,406.927C526.337,408.307 528.944,411.14 530.502,411.162C531.066,411.17 531.748,411.179 536.679,407.766C537.914,406.911 546.853,401.229 553.343,396.289C555.181,394.89 559.552,391.893 564.705,387.765C568.315,384.872 568.374,384.974 571.87,381.967C572.296,381.601 580.483,374.8 581.233,374.177C584.511,371.455 602.238,355.52 611.913,343.893C612.916,342.688 622.534,332.817 631.369,319.406C631.511,319.191 634.4,315.372 635.086,314.218C637.45,310.238 638.967,309.235 635.098,305.929C628.044,299.902 628.021,299.925 620.175,294.974C616.119,292.414 608.682,289.483 607.651,289.077C606.3,288.544 599.457,285.613 588.441,283.901C587.902,283.818 583.981,282.567 568.506,282.785C560.428,282.899 560.454,283.064 552.46,284.245C550.869,284.48 548.784,285.177 547.476,285.354C543.369,285.908 543.432,286.149 539.398,287.148C536.448,287.879 536.469,287.919 533.49,288.444C533.336,288.471 533.35,288.481 531.603,288.95C528.67,290.501 528.681,290.496 525.483,291.447C522.771,292.253 520.842,293.559 515.65,294.79C513.891,295.772 513.387,296.295 510.448,297.371C509.874,297.581 509.78,297.615 503.549,300.648C501.978,301.397 494.759,305.228 494.436,305.424C492.804,306.658 485.778,310.88 483.837,311.817C480.869,314.421 480.6,314.418 477.806,315.838C472.217,320.631 460.523,327.973 445.436,344.441C444.648,345.301 442.11,348.677 438.657,347.196C438.542,347.147 434.286,344.454 437.324,340.37C439.033,338.072 448.032,328.235 458.258,320.029C461.397,317.32 461.259,317.173 464.68,314.83C465.633,314.177 465.637,314.218 466.572,313.573C469.431,310.812 471.279,310.095 474.508,307.512C476.355,306.302 476.332,306.303 478.321,305.319C480.229,303.648 480.339,303.818 482.447,302.385C483.754,301.666 483.724,301.631 485.105,301.069C488.014,298.766 488.063,298.851 491.429,297.305L493.3,296.222C496.258,294.531 496.231,294.519 499.281,293.01C506.724,289.244 506.703,289.214 513.489,286.482C515.784,285.559 515.436,284.056 513.567,283.395C505.488,280.541 505.282,280.501 504.533,280.355C500.483,279.567 500.522,279.44 496.448,278.834C491.163,278.048 491.19,277.774 485.498,277.753C471.801,277.702 471.819,277.937 465.539,278.793C464.828,278.89 458.812,279.709 456.633,279.912C454.11,280.487 454.113,280.437 451.56,280.919C446.991,281.798 446.98,281.725 446.592,281.835C446.179,281.952 446.246,282.119 441.498,283.495C432.936,285.752 432.981,285.837 431.483,286.45C429.584,287.228 426.116,287.835 425.608,287.944C422.65,289.477 422.823,289.82 419.671,290.921C413.544,293.268 413.743,293.717 407.584,295.938C407.411,296.025 406.587,296.22 405.222,297.128C402.813,298.731 402.067,298.306 389.617,305.777C388.676,306.342 388.682,306.304 387.688,306.774Z" style="fill:rgb(6,3,3);"/>
    </g>
    <g transform="matrix(1,0,0,1,39.859947,103.149585)">
        <path d="M456.633,279.912C458.812,279.709 464.828,278.89 465.539,278.793C471.819,277.937 471.801,277.702 485.498,277.753C491.19,277.774 491.163,278.048 496.448,278.834C500.522,279.44 500.483,279.567 504.533,280.355C505.282,280.501 505.488,280.541 513.567,283.395C515.436,284.056 515.784,285.559 513.489,286.482C506.703,289.214 506.724,289.244 499.281,293.01C496.231,294.519 496.258,294.531 493.3,296.222C492.676,296.583 492.052,296.944 491.429,297.305C488.063,298.851 488.014,298.766 485.105,301.069C483.724,301.631 483.754,301.666 482.447,302.385C480.339,303.818 480.229,303.648 478.321,305.319C476.332,306.303 476.355,306.302 474.508,307.512C471.279,310.095 469.431,310.812 466.572,313.573C465.637,314.218 465.633,314.177 464.68,314.83C461.259,317.173 461.397,317.32 458.258,320.029C448.032,328.235 439.033,338.072 437.324,340.37C434.286,344.454 438.542,347.147 438.657,347.196C442.11,348.677 444.648,345.301 445.436,344.441C460.523,327.973 472.217,320.631 477.806,315.838C480.6,314.418 480.869,314.421 483.837,311.817C485.778,310.88 492.804,306.658 494.436,305.424C494.759,305.228 501.978,301.397 503.549,300.648C509.78,297.615 509.874,297.581 510.448,297.371C513.387,296.295 513.891,295.772 515.65,294.79C520.842,293.559 522.771,292.253 525.483,291.447C528.681,290.496 528.67,290.501 531.603,288.95C533.35,288.481 533.336,288.471 533.49,288.444C536.469,287.919 536.448,287.879 539.398,287.148C543.432,286.149 543.369,285.908 547.476,285.354C548.784,285.177 550.869,284.48 552.46,284.245C560.454,283.064 560.428,282.899 568.506,282.785C583.981,282.567 587.902,283.818 588.441,283.901C599.457,285.613 606.3,288.544 607.651,289.077C608.682,289.483 616.119,292.414 620.175,294.974C628.021,299.925 628.044,299.902 635.098,305.929C638.967,309.235 637.45,310.238 635.086,314.218C634.4,315.372 631.511,319.191 631.369,319.406C622.534,332.817 612.916,342.688 611.913,343.893C602.238,355.52 584.511,371.455 581.233,374.177C580.483,374.8 572.296,381.601 571.87,381.967C568.374,384.974 568.315,384.872 564.705,387.765C559.552,391.893 555.181,394.89 553.343,396.289C546.853,401.229 537.914,406.911 536.679,407.766C531.748,411.179 531.066,411.17 530.502,411.162C528.944,411.14 526.337,408.307 523.296,406.927C518.992,404.975 519.001,404.931 514.391,403.943C501.625,401.205 492.374,407.188 491.557,407.604C485.891,410.489 479.691,416.356 478.584,417.584C475.893,420.569 475.301,418.533 471.614,417.185C463.892,414.362 460.134,414.478 452.515,414.816C450.624,414.899 438.881,416.82 435.606,417.861C428.329,420.174 428.069,419.561 421.448,423.408C419.586,424.49 418.283,423.967 415.552,423.26C414.074,422.877 411.909,422.317 396.502,422.22C379.268,422.112 376.558,421.625 370.439,423.194C367.675,423.902 367.059,423.176 365.443,422.669C361.534,421.44 360.038,421.214 359.557,421.141C356.049,420.609 356.038,420.798 352.535,420.24C348.654,419.621 346.887,419.742 344.552,419.201C340.061,418.162 339.998,418.669 335.432,417.992C327.119,416.758 326.422,418.416 324.098,415.864C321.355,412.852 320.79,412.28 320.798,409.507C320.829,399.186 322.166,393.035 322.391,391.481C322.558,390.326 323.168,386.117 326.094,377.367C330.549,364.051 341.2,348.745 341.939,347.854C347.358,341.329 347.187,341.196 347.683,340.651C355.507,332.05 357.6,329.511 363.157,325.091C366.194,322.675 367.86,320.5 370.667,318.74C371.912,317.886 371.939,317.948 373.178,317.081C374.171,316.387 374.962,315.207 376.663,313.795C376.996,313.565 380.316,311.266 380.877,310.995C384.503,309.245 384.421,309.126 387.688,306.774C388.682,306.304 388.676,306.342 389.617,305.777C402.067,298.306 402.813,298.731 405.222,297.128C406.587,296.22 407.411,296.025 407.584,295.938C413.743,293.717 413.544,293.268 419.671,290.921C422.823,289.82 422.65,289.477 425.608,287.944C426.116,287.835 429.584,287.228 431.483,286.45C432.981,285.837 432.936,285.752 441.498,283.495C446.246,282.119 446.179,281.952 446.592,281.835C446.98,281.725 446.991,281.798 451.56,280.919C454.113,280.437 454.11,280.487 456.633,279.912Z" style="fill:rgb(0,169,243);"/>
    </g>
    <g transform="matrix(1,0,0,1,39.859947,103.149585)">
        <path d="M322.072,295.742C321.658,295.024 321.002,293.902 320.25,292.685C314.638,282.92 304.073,271.913 300.286,267.701C297.446,264.544 297.334,264.681 294.436,261.56C285.419,251.846 270.123,235.815 262.124,225.808C255.758,217.844 243.546,202.341 235.018,183.719C234.583,182.771 231.793,176.677 230.242,171.581C227.043,161.075 227.183,161.038 226.12,154.572C225.846,152.907 224.43,144.294 224.91,133.526C225.203,126.955 225.367,126.984 226.277,120.465C227.37,112.623 231.149,100.143 234.752,92.629C240.625,80.378 246.107,72.384 257.574,61.579C262.688,56.76 271.405,51.541 274.724,49.969C295.513,40.13 311.049,43.195 311.533,43.255C312.842,43.417 319.35,44.224 327.382,47.778C342.001,54.248 351.014,63.77 359.491,63.895C366.541,64 378.938,54.676 389.417,49.332C412.985,37.312 423.143,36.851 431.505,35.539C436.12,34.815 445.988,35.045 448.512,35.42C456.732,36.64 456.74,36.584 457.439,36.768C463.979,38.495 464.231,37.672 479.474,43.56C482.107,44.576 491.895,49.574 494.671,51.201C511.368,60.988 522.964,71.228 523.923,72.015C533.533,79.9 533.319,80.11 542.449,88.554C545.468,91.347 551.898,98.191 555.333,101.663C559.771,106.151 573.405,121.852 575.016,123.883C575.443,124.422 577.886,127.502 580.428,130.556C580.971,131.209 584.394,135.323 587.062,138.839C592.617,146.16 592.662,146.119 593.11,146.78C594.75,149.204 594.837,149.115 596.57,151.447C600.873,157.237 600.635,157.388 604.901,163.215C606.137,164.903 606.058,164.933 607.274,166.657C609.219,169.413 614.982,178.139 615.788,179.302C618.706,183.52 620.412,186.443 621.233,187.661C623.583,191.148 625.1,193.973 626.233,195.664C628.331,198.797 639.456,217.813 643.843,226.32C653.276,244.612 653.019,244.74 653.867,246.316C655.78,249.871 655.475,250 657.204,253.634C658.183,255.692 663.077,267.893 663.625,269.458C664.676,272.458 664.594,272.459 665.621,275.461C672.38,295.23 665.413,312.415 663.726,318.572C662.633,322.564 659.556,330.967 658.836,332.64C656.128,338.938 639.922,385.164 603.785,437.687C602.903,438.969 602.485,440.076 592.034,454.153C588.658,458.701 579.021,470.614 574.551,475.545C570.722,479.768 552.589,501.597 524.438,521.41C522.389,522.852 522.35,522.772 520.285,524.187C519.81,524.513 515.517,527.457 514.277,528.15C510.058,530.508 494.305,540.72 470.534,548.598C467.065,549.747 467.006,549.492 463.523,550.575C456.334,552.81 456.059,552.581 453.421,553.198C447.102,554.675 447.068,554.455 446.521,554.586C442.511,555.547 442.484,555.305 438.415,556.019C425.024,558.37 401.092,559.106 389.51,558.348C377.913,557.589 374.323,557.702 361.477,555.628C354.162,554.447 354.194,554.332 353.559,554.231C347.055,553.198 345.378,552.832 334.384,549.95C311.552,543.966 293.691,533.741 292.651,533.21C291.728,532.738 283.93,528.08 282.689,527.216C272.022,519.792 259.522,509.697 249.682,493.394C248.777,491.896 243.452,483.074 240.722,473.434C239.094,467.685 238.262,464.952 237.779,460.46C237.633,459.11 236.139,454.063 236.851,439.517C236.945,437.598 238.348,429.029 238.498,428.499C240.522,421.321 240.427,421.304 243.148,414.355C245.561,408.195 250.868,400.233 253.701,396.655C256.338,393.325 256.364,393.368 259.147,390.18C266.504,381.754 266.8,382.064 270.899,377.926C273.147,375.656 273.749,375.444 275.675,373.695C286.457,363.906 301.314,352.785 307.775,346.799C319.943,335.528 322.586,330.782 324.109,327.319C328.897,316.429 327.634,310.253 326.313,304.556C325.096,302.19 324.978,302.262 324.065,299.747C323.374,298.072 323.4,298.079 322.503,296.499L322.249,296.05C322.136,295.983 322.04,295.903 322.072,295.742ZM328.181,280.759C330.342,283.302 336.565,294.4 337.023,295.5C337.45,296.525 340.038,306.274 340.626,309.487C342.31,318.689 339.066,323.488 339.066,323.488C338.547,325.309 337.634,328.784 337.368,329.458C333.461,339.355 327.593,344.845 325.452,347.462C324.04,349.187 323.963,349.101 320.497,352.497C318.466,354.487 318.25,354.227 316.317,356.339C315.702,357.01 314.366,358.469 307.69,363.742C306.484,364.694 306.034,364.813 305.823,364.956C305.206,365.373 304.369,366.497 302.701,367.797C299.436,370.344 299.481,370.376 297.36,372.334C294.684,374.805 294.388,374.431 292.359,376.344C288.994,379.518 288.66,379.11 285.32,382.309C280.595,386.837 280.487,386.715 280.081,387.113C275.905,391.206 275.786,391.071 275.461,391.461C273.457,393.868 268.359,398.953 267.77,399.703C263.733,404.837 263.645,404.751 260.005,410.157C256.563,415.27 256.367,417.1 255.118,419.286C253.442,422.219 253.921,422.395 252.773,425.591C251.231,429.885 251.369,430.82 250.597,436.515C249.96,441.212 249.356,441.173 249.78,451.484C249.925,455.029 250.504,454.937 250.82,458.461C251.397,464.898 252.142,465.214 253.267,469.572C254.455,474.175 254.787,474.04 256.537,478.485C256.617,478.688 259.619,484.636 260.31,485.62C261.536,487.368 261.681,488.074 262.465,489.522C263.454,491.351 272.206,501.47 272.886,502.074C273.962,503.03 273.923,503.053 274.964,504.041C275.427,504.481 280.257,508.84 280.718,509.256C284.314,512.5 290.09,515.882 292.863,518.01C295.238,519.832 295.49,519.412 297.812,521.006C300.807,523.062 302.979,523.613 307.709,526.073C312.202,528.409 314.873,529.326 318.697,531.018C322.757,532.815 325.961,533.462 326.453,533.644C331.944,535.67 332.002,535.442 337.582,537.247C340.387,538.155 347.661,539.604 351.467,540.627C353.695,541.226 355.31,541.169 357.486,541.58C358.041,541.685 364.255,542.857 364.425,542.896C369.907,544.159 370.019,543.249 375.549,544.188C378.99,544.771 379,544.59 382.466,544.893C402.949,546.687 412.739,545.355 416.498,545.275C424.568,545.104 424.477,544.24 432.527,543.771C437.076,543.506 443.842,541.601 446.465,541.298C450.1,540.877 450.094,540.881 453.597,539.774C459.632,537.867 459.829,538.6 464.61,536.793C468.013,535.505 468.112,535.829 471.484,534.457C476.443,532.438 477.248,532.906 484.308,529.151C486.904,527.769 487.11,528.285 489.712,526.923C498.866,522.131 498.946,522.304 499.701,521.819C512.614,513.526 512.644,513.591 513.739,512.831C519.805,508.621 519.888,508.76 520.388,508.36C524.003,505.471 524.125,505.665 527.712,502.762C535.372,496.562 542.606,489.752 544.259,488.252C549.39,483.593 556.828,475.681 557.698,474.656C560.445,471.425 560.457,471.455 563.32,468.344C569.071,462.095 568.871,461.927 569.374,461.388C572.952,457.556 572.799,457.054 572.939,456.847C573.225,456.426 575.831,453.648 577.865,450.754C578.593,449.72 578.61,449.759 581.34,446.379C582.438,445.02 586.035,439.774 587.271,438.292C587.456,438.071 593.742,428.942 595.104,427.187C597.502,424.099 607.172,407.767 607.897,406.8C609.825,404.228 609.488,404.03 611.2,401.323C612.135,399.845 613.34,397.397 613.796,396.689C618.249,389.769 622.988,379.725 623.677,378.595C625.553,375.517 625.225,375.363 627.02,372.229C628.497,369.649 628.199,369.508 629.818,366.677C630.613,365.287 631.362,363.259 631.705,362.589C633.541,359.002 633.347,358.923 635.127,355.312C635.255,355.053 640.834,342.048 640.959,341.666C642.002,338.493 642.089,338.544 643.414,335.465C645.999,329.46 647.529,324.855 647.649,324.563C650.684,317.177 654.24,304.802 654.428,303.488C655.425,296.48 656.002,293.021 655.162,288.551C654.486,284.955 654.904,284.864 653.57,281.475C652.966,279.94 651.821,274.949 650.307,271.586C649.326,269.408 649.527,269.352 649.258,268.579C649.083,268.076 647.956,266.024 647.43,264.527C646.009,260.479 645.687,260.634 644.134,256.649C643.71,255.561 640.17,247.994 640.039,247.758C638.022,244.122 634.515,236.586 632.677,233.402C629.988,228.745 630.146,228.675 629.906,228.276C627.851,224.854 627.946,224.337 626.682,222.381C625.706,220.871 625.876,220.793 624.945,219.246C617.278,206.514 617.377,206.469 616.663,205.394C614.825,202.626 615.065,202.506 614.426,201.545C613.032,199.448 612.965,199.519 611.652,197.39C604.921,186.469 601.91,182.145 601.012,180.854C598.075,176.636 598.163,176.582 597.898,176.223C593.509,170.267 593.714,170.13 593.32,169.622C589.998,165.335 590.21,165.2 587.006,160.84C576.515,146.569 573.499,143.065 572.402,141.565C571.69,140.591 568.885,137.56 567.944,136.152C564.914,131.618 564.182,132.154 562.434,129.557C560.946,127.347 560.802,127.478 557.396,123.593C538.08,101.561 535.761,100.364 534.2,98.793C529.692,94.254 529.597,94.38 524.863,90.072C523.293,88.643 523.257,88.719 521.662,87.316C521.323,87.018 517.694,83.825 517.428,83.583C513.986,80.449 513.871,80.616 511.407,78.612C507.213,75.201 506.771,75.249 505.133,73.955C500.135,70.006 497.433,68.45 496.805,68.019C495.098,66.849 495.066,66.931 493.292,65.857C490.154,63.957 487.261,62.101 485.236,60.96C480.343,58.201 479.715,58.16 479.672,58.139C471.126,53.966 467.727,53.442 464.659,52.138C461.701,50.881 461.607,51.25 458.527,50.396C455.126,49.452 454.733,49.566 452.58,49.035C447.418,47.763 430.512,48.103 427.601,48.975C425.051,49.739 425.017,49.528 422.425,50.214C421.806,50.378 421.19,50.556 420.57,50.718C415.978,51.918 416.148,52.411 411.55,53.651C410.019,54.064 409.956,54.346 407.415,55.308C402.374,57.215 389.606,64.154 384.356,67.251C379.541,70.091 379.496,69.982 374.647,72.783C372.044,74.287 371.976,74.11 369.663,74.921C367.999,75.504 366.593,76.412 364.511,76.601C357.765,77.213 355.69,77.052 353.523,76.419C347.71,74.719 347.877,74.309 342.421,71.674C341.693,71.323 332.746,65.633 328.232,62.939C324.721,60.843 324.553,61.195 322.636,60.2C313.212,55.312 304.65,56.094 303.496,56.091C293.496,56.064 293.139,57.306 288.541,58.618C287.718,58.853 282.316,60.394 278.675,62.772C276.714,64.053 269.101,67.315 260.211,77.245C256.951,80.888 254.756,83.093 251.233,89.363C246.885,97.103 247.035,97.167 244.056,104.323C243.433,105.818 243.603,105.865 243.045,107.372C241.604,111.265 241.205,111.147 240.633,115.521C240.397,117.323 239.728,118.217 239.25,121.461C238.591,125.93 237.884,126.958 237.878,136.5C237.871,148.026 238.164,148.009 239.178,153.552C241.088,164.005 241.244,163.965 241.76,165.407C243.714,170.862 243.624,170.892 243.845,171.344C245.509,174.759 245.155,174.904 246.903,178.286C250.03,184.336 249.596,184.699 254.888,193.251C259.143,200.128 260.154,200.481 261.235,202.673C262.5,205.238 262.266,205.392 264.365,207.615C266.616,209.998 267.116,211.337 268.32,212.668C271.344,216.011 271.716,216.994 271.872,217.222C271.976,217.373 282.585,229.278 282.665,229.381C285.254,232.733 285.794,232.244 288.819,236.215C289.331,236.887 289.661,237.321 296.071,243.89C298.322,246.197 297.887,246.556 300.18,248.817C309.704,258.208 310.957,260.278 314.286,263.7C318.017,267.535 317.462,267.996 321.108,271.882C324.902,275.926 325.891,278.066 328.181,280.759Z" style="fill:rgb(8,4,4);"/>
    </g>
    <g transform="matrix(1,0,0,1,39.859947,103.149585)">
        <path d="M53.357,312.518C52.964,307.687 52.829,307.718 52.481,305.502C51.976,302.289 51.313,285.234 52.195,269.478C52.403,265.763 52.965,265.46 53.227,261.481C53.624,255.458 54.106,255.542 54.635,251.52C55.034,248.489 55.212,248.541 55.689,245.534C56.336,241.458 56.597,241.529 57.321,237.458C57.543,236.209 59.46,229.707 59.511,229.503C59.668,228.864 60.76,224.43 61.809,221.609C63.179,217.923 64.33,214.496 64.694,213.58C71.48,196.508 77.074,185.684 88.994,168.842C92.09,164.469 102.336,152.127 107.782,146.783C117.129,137.611 127.03,145.827 126.075,153.445C125.41,158.745 123.926,158.108 112.739,170.71C111.107,172.549 102.769,181.943 94.94,195.759C81.315,219.804 76.948,240.166 76.823,240.6C75.477,245.289 74.487,251.483 74.272,252.459C73.386,256.479 73.577,256.5 72.996,260.585C71.05,274.267 71.019,287.06 72.143,304.53C72.165,304.866 73.762,317.328 73.79,317.458C74.669,321.49 74.427,321.524 75.428,325.517C76.166,328.465 75.935,328.497 76.759,331.431C77.291,333.325 77.199,333.851 77.715,335.435C79.488,340.872 86.484,371.187 110.83,402.24C111.771,403.441 115.91,408.721 123.539,416.462C131.153,424.187 126.045,431.504 121.439,433.36C117.432,434.976 114.273,434.553 110.452,431.559C107.691,429.395 99.366,419.829 96.636,416.398C74.787,388.937 67.063,365.986 62.823,354.383C60.616,348.344 56.546,332.177 55.886,328.429C53.855,316.912 53.502,313.798 53.357,312.518Z" style="fill:rgb(4,4,4);"/>
    </g>
    <g transform="matrix(1,0,0,1,39.859947,103.149585)">
        <path d="M429.542,139.124C429.978,139.583 430.064,140.306 430.5,140.765C430.767,141.047 430.927,140.785 434.739,143.134C436.903,144.468 436.722,144.673 438.676,146.288C439.2,146.721 441.619,148.72 444.413,152.567C444.795,153.092 446.102,155.612 447.889,158.307C448.106,158.634 448.361,159.019 450.15,162.666C451.542,165.504 452.726,169.85 453.292,170.5C453.704,170.974 454.328,171.231 454.74,171.704C453.197,173.168 453.162,173.596 453.608,178.491C454.335,186.48 454.435,186.46 454.34,194.5C454.239,203.106 453.764,206.589 445.724,211.865C443.105,213.584 437.166,215.32 434.527,215.673C428.339,216.501 428.084,216.915 417.502,216.946C408.621,216.972 406.849,217.179 395.483,215.605C394.625,215.486 389.224,214.089 388.39,213.783C382.899,211.768 382.584,211.131 381.566,203.49C379.614,188.829 382.048,170.873 381.465,168.509C381.197,167.422 381.032,167.513 380.206,166.735C380.711,166.222 380.51,166.082 381.021,165.562C381.656,164.917 381.829,165.143 382.43,164.475C382.517,164.378 383.536,161.784 383.628,161.549C384.465,159.418 383.76,159.049 389.104,151.182C390.091,149.729 389.388,149.578 389.473,149.467C389.686,149.186 390.252,149.467 390.5,149.217C390.5,149.217 390.377,147.208 390.366,147.033C398.037,145.201 405.824,144.809 425.515,139.559C427.741,138.966 429.174,139.133 429.542,139.124Z" style="fill:rgb(253,252,252);"/>
    </g>
    <g transform="matrix(1,0,0,1,39.859947,103.149585)">
        <path d="M169.507,188.073C170.431,188.162 171.474,187.854 174.483,189.528C177.56,191.241 182.151,197.822 175.999,204.94C172.875,208.554 172.242,208.755 168.566,213.549C148.757,239.386 146.053,265.162 145.046,269.414C144.655,271.065 144.755,271.078 143.709,281.517C143.605,282.551 143.19,286.696 143.41,294.502C143.423,294.98 144.635,308.129 144.693,308.47C144.858,309.428 144.902,309.403 146.953,320.409C147.216,321.817 150.734,334.557 153.694,341.42C161.128,358.653 164.738,362.589 168.129,367.758C174.295,377.158 181.797,380.666 179.736,388.565C178.582,392.989 169.256,401.662 160.025,389.879C156.431,385.292 155.283,384.566 150.106,376.768C148.544,374.416 145.454,370.551 139.083,357.698C133.597,346.628 127.408,327.597 125.676,313.475C124.879,306.98 124.536,307.029 124.257,300.508C124.001,294.514 123.56,291.249 124.473,275.498C124.533,274.462 125.672,261.794 129.208,249.428C130.834,243.741 136.58,220.908 156.754,196.706C158.331,194.815 158.46,194.954 160.044,193.091C164.522,187.824 167.476,188.173 169.507,188.073Z" style="fill:rgb(4,4,4);"/>
    </g>
    <g transform="matrix(1,0,0,1,39.859947,103.149585)">
        <path d="M311.933,170.702C310.593,173.407 310.258,173.452 310.279,185.5C310.292,193.54 310.487,193.52 311.776,201.447C312.009,202.877 313.558,205.116 310.463,206.424C309.531,206.818 302.123,209.949 297.819,207.041C294.346,204.696 291.619,198.342 290.198,195.647C285.271,186.302 283.913,169.711 286.609,156.525C287.475,152.291 290.139,150.768 291.5,149.499C298.365,144.282 299.514,143.815 309.539,140.625C315.915,138.596 317.603,139.983 324.416,141.759C325.152,141.95 329.602,143.111 333.49,144.584C341.961,146.334 341.897,146.619 350.461,147.79C357.44,148.744 357.43,148.743 364.478,148.803C364.549,149.402 363.777,149.901 363.848,150.5C363.866,150.648 364.289,150.296 365.053,151.926C365.306,152.464 365.381,152.416 368.972,158.227C371.83,162.852 371.326,163.703 372.797,165.5C373.165,165.949 373.571,166.367 373.939,166.816C373.609,167.347 373,167.114 372.741,169.526C372.521,171.575 371.708,186.182 371.706,187.501C371.703,188.703 371.693,194.059 372.379,202.513C372.861,208.454 375.024,211.891 371.594,212.768C360.569,215.585 337.106,214.501 330.574,212.262C321.787,209.25 320.55,200.606 319.514,191.498C319.183,188.584 319.295,180.235 319.431,176.498C319.45,175.974 319.861,173.369 318.754,171.359C318.365,170.654 316.318,169.161 313.358,170.172C313.243,170.212 313.253,170.212 311.933,170.702Z" style="fill:white;"/>
    </g>
    <g transform="matrix(1,0,0,1,39.859947,103.149585)">
        <path d="M481.547,151.184C491.176,154.418 517.499,168.739 519.329,170.648C520.462,171.831 519.923,172.084 520.595,180.494C521.115,187 520.552,191.1 520.209,194.459C519.481,201.568 516.289,204.154 513.579,206.588C504.68,214.58 493.984,213.434 489.515,213.202C474.157,212.403 464.17,203.016 463.518,200.495C463.199,199.261 463.437,199.251 463.391,189.501C463.356,181.972 463.113,182 462.387,174.506C462.771,174.032 463.534,173.975 463.919,173.5C464.165,173.196 463.969,172.699 464.138,172.346C464.347,171.911 464.556,172.061 465.403,170.444C465.869,169.554 467.154,167.518 467.611,166.561C467.783,166.2 468.278,165.161 470.334,162.376C475.68,155.132 478.25,154.07 478.648,153.716C479.646,152.828 479.761,152.998 480.342,152.5C480.793,152.112 481.096,151.572 481.547,151.184Z" style="fill:rgb(252,252,252);"/>
    </g>
    <g transform="matrix(1,0,0,1,39.859947,103.149585)">
        <path d="M372.394,451.513C371.805,445 370.898,441.8 371.068,436.474C371.243,430.95 373.175,430.732 386.497,430.911C412.205,431.255 412.52,431.37 414.638,432.14C417.469,433.171 415.906,435.35 416.892,445.47C417.855,455.367 417.621,455.459 417.104,456.008C415.916,457.269 399.779,458.367 397.505,458.561C387.845,459.386 376.512,459.039 375.434,458.904C372.502,458.538 372.719,455.132 372.394,451.513Z" style="fill:rgb(250,250,250);"/>
    </g>
    <g transform="matrix(1,0,0,1,39.859947,103.149585)">
        <path d="M458.427,446.263C453.51,447.964 450.108,448.928 449.377,449.135C444.039,450.647 444.039,450.624 443.577,450.764C439.984,451.854 429.914,454.198 428.519,454.095C426.994,453.983 426.682,452.659 426.637,452.465C426.471,451.762 426.626,451.748 425.688,443.483C425.662,443.247 424.731,434.059 425.971,431.748C428.158,427.672 457.707,420.085 468.424,425.65C470.819,426.893 473.597,427.76 474.809,437.466C475.229,440.833 473.225,440.697 463.5,444.501C461.501,445.283 458.836,446.132 458.427,446.263Z" style="fill:rgb(250,250,250);"/>
    </g>
    <g transform="matrix(1,0,0,1,39.859947,103.149585)">
        <path d="M362.141,437.493C362.335,454.928 365.898,457.798 361.509,457.776C359.975,457.768 346.413,455.672 337.631,453.093C336.795,452.848 329.194,450.975 328.332,449.631C327.083,447.683 323.583,430.654 326.464,427.467C328.181,425.568 331.035,426.568 339.491,427.561C340.027,427.624 341.156,427.902 346.493,428.565C350.008,429.002 350.01,428.864 353.515,429.41C361.012,430.578 362.499,430.1 362.313,433.489C362.203,435.493 362.206,435.48 362.141,437.493Z" style="fill:rgb(249,249,249);"/>
    </g>
    <g transform="matrix(1,0,0,1,39.859947,103.149585)">
        <path d="M429.542,139.124C435.039,138.883 435.042,138.794 440.469,139.704C444.439,140.37 444.479,140.045 448.411,140.936C451.487,141.633 451.51,141.473 454.541,142.341C457.778,143.268 457.912,142.692 462.558,144.331C468.48,146.421 468.983,145.794 481.547,151.184C481.096,151.572 480.793,152.112 480.342,152.5C479.761,152.998 479.646,152.828 478.648,153.716C478.25,154.07 475.68,155.132 470.334,162.376C468.278,165.161 467.783,166.2 467.611,166.561C467.154,167.518 465.869,169.554 465.403,170.444C464.556,172.061 464.347,171.911 464.138,172.346C463.969,172.699 464.165,173.196 463.919,173.5C463.534,173.975 462.771,174.032 462.387,174.506C462.188,174.109 462.516,173.867 461.409,172.557C458.774,169.436 456.332,170.976 454.74,171.704C454.328,171.231 453.704,170.974 453.292,170.5C452.726,169.85 451.542,165.504 450.15,162.666C448.361,159.019 448.106,158.634 447.889,158.307C446.102,155.612 444.795,153.092 444.413,152.567C441.619,148.72 439.2,146.721 438.676,146.288C436.722,144.673 436.903,144.468 434.739,143.134C430.927,140.785 430.767,141.047 430.5,140.765C430.064,140.306 429.978,139.583 429.542,139.124Z" style="fill:rgb(0,169,243);"/>
    </g>
    <g transform="matrix(1,0,0,1,39.859947,103.149585)">
        <path d="M441.508,69.427C440.869,69.38 437.803,69.156 433.496,69.261C432.862,69.277 427.882,69.535 426.537,69.776C421.044,70.763 421.032,70.669 420.564,70.794C411.3,73.267 409.283,66.257 411.385,62.422C412.333,60.692 415.334,59.257 417.576,58.937C432.622,56.786 434.917,57.285 437.5,57.305C451.291,57.412 463.767,62.226 466.646,64.257C468.406,65.499 471.457,67.527 469.888,71.652C467.201,78.714 458.089,73.462 457.58,73.276C449.68,70.386 447.789,70.309 441.508,69.427Z" style="fill:rgb(253,246,244);"/>
    </g>
    <g transform="matrix(1,0,0,1,39.859947,103.149585)">
        <path d="M529.231,195.464C529.801,188.869 529.987,188.626 529.939,185.501C529.84,179.06 528.979,178.295 530.582,177.986C531.401,177.827 533.374,179.546 533.434,179.589C538.85,183.435 538.898,183.347 539.363,183.689C540.263,184.349 540.265,184.314 541.181,184.948C541.509,185.176 557.682,197.386 559.8,199.123C562.636,201.45 564.038,202.143 563.897,203.556C563.799,204.536 560.314,207.884 555.47,209.404C550.381,211 547.189,210.094 545.46,209.675C539.232,208.165 529.643,202.568 528.716,200.429C528.557,200.062 528.5,199.932 529.231,195.464Z" style="fill:rgb(248,248,248);"/>
    </g>
    <g transform="matrix(1,0,0,1,39.859947,103.149585)">
        <path d="M298.666,415.526C299.211,413.342 300.516,404.581 309.573,402.859C312.356,402.33 312.562,406.256 310.564,406.718C310.441,406.747 305.901,406.11 304.383,409.447C302.01,414.661 309.1,415.334 315.437,420.576C318.828,423.381 317.183,424.152 316.745,428.528C315.863,437.338 317.302,442.499 317.308,442.529C317.781,444.72 317.481,445.765 315.394,444.953C313.766,444.32 307.356,440.595 306.669,440.196C298.768,435.604 298.861,435.052 298.615,432.485C298.083,426.928 297.907,426.962 297.877,426.478C297.563,421.553 298.481,416.761 298.666,415.526Z" style="fill:rgb(246,246,245);"/>
    </g>
    <g transform="matrix(1,0,0,1,39.859947,103.149585)">
        <path d="M507.499,412.116C511.408,412.201 511.414,412.204 514.612,413.097C515.039,413.216 517.79,413.985 519.81,415.042C520.781,415.551 521.117,415.42 521.119,416.513C521.12,417.555 520.818,417.441 519.919,417.994C507.557,425.596 494.309,431.64 486.445,435.372C483.257,436.885 483.245,433.767 483.209,433.569C482.616,430.302 482.144,429.111 482.149,428.511C482.166,426.284 487.032,420.336 494.358,416.22C502.807,411.474 507.317,412.121 507.499,412.116Z" style="fill:rgb(247,247,247);"/>
    </g>
    <g transform="matrix(1,0,0,1,39.859947,103.149585)">
        <path d="M299.499,76.544C298.738,76.542 294.927,76.468 293.546,76.758C285.024,78.548 281.356,81.457 279.426,82.298C273.803,84.747 268.335,77.45 276.459,72.442C281.657,69.239 283.957,68.583 289.419,67.196C294.442,65.92 303.574,66.025 307.612,67.184C313.241,68.8 313.166,74.774 309.548,76.587C306.081,78.325 305.889,76.812 299.499,76.544Z" style="fill:rgb(253,243,243);"/>
    </g>
    <g transform="matrix(1,0,0,1,39.859947,103.149585)">
        <path d="M390.366,147.033C390.377,147.208 390.5,149.217 390.5,149.217C390.252,149.467 389.686,149.186 389.473,149.467C389.388,149.578 390.091,149.729 389.104,151.182C383.76,159.049 384.465,159.418 383.628,161.549C383.536,161.784 382.517,164.378 382.43,164.475C381.829,165.143 381.656,164.917 381.021,165.562C380.51,166.082 380.711,166.222 380.206,166.735C377.151,165.486 376.989,165.528 373.939,166.816C373.571,166.367 373.165,165.949 372.797,165.5C371.326,163.703 371.83,162.852 368.972,158.227C365.381,152.416 365.306,152.464 365.053,151.926C364.289,150.296 363.866,150.648 363.848,150.5C363.777,149.901 364.549,149.402 364.478,148.803C372.035,148.343 372.069,149.019 379.557,147.916C380.494,147.778 386.999,147.164 390.366,147.033Z" style="fill:rgb(0,169,243);"/>
    </g>
    <g transform="matrix(1,0,0,1,39.859947,103.149585)">
        <path d="M445.611,490.949C447.943,490.546 451.41,489.808 454.655,491.172C455.255,491.424 459.246,493.101 457.948,498.609C456.856,503.244 449.23,505.268 444.491,504.564C439.158,503.772 438.748,498.43 438.846,497.537C439.435,492.17 444.929,491.193 445.611,490.949Z" style="fill:rgb(251,246,241);"/>
    </g>
    <g transform="matrix(1,0,0,1,39.859947,103.149585)">
        <path d="M491.503,489.291C491.184,489.23 490.851,489.268 490.531,489.207C484.543,488.06 484.071,481.903 486.821,478.755C491.259,473.675 498.491,476.852 498.864,481.466C499.187,485.469 497.158,486.629 496.865,486.894C493.954,489.527 492.366,489.192 491.503,489.291Z" style="fill:rgb(251,244,241);"/>
    </g>
    <g transform="matrix(1,0,0,1,39.859947,103.149585)">
        <path d="M491.202,79.521C491.135,80.779 491.503,82.189 489.244,84.215C485.422,87.643 477.325,83.632 480.308,77.397C482.429,72.965 489.703,73.777 490.969,78.36C491.074,78.741 491.097,79.14 491.202,79.521Z" style="fill:rgb(253,236,238);"/>
    </g>
    <g transform="matrix(1,0,0,1,39.859947,103.149585)">
        <path d="M278.488,407.495C278.713,407.24 278.169,406.734 278.394,406.478C278.848,405.965 279.366,406.374 279.431,406.426C280.086,406.945 279.478,407.336 280.144,407.863C279.592,407.74 279.04,407.617 278.488,407.495Z" style="fill:rgb(165,32,40);"/>
    </g>
</svg>
