<?xml version="1.0" encoding="UTF-8" standalone="no"?>
<!DOCTYPE svg PUBLIC "-//W3C//DTD SVG 1.1//EN" "http://www.w3.org/Graphics/SVG/1.1/DTD/svg11.dtd">
<svg width="100%" height="100%" viewBox="0 0 800 800" version="1.1" xmlns="http://www.w3.org/2000/svg" xmlns:xlink="http://www.w3.org/1999/xlink" xml:space="preserve" xmlns:serif="http://www.serif.com/" style="fill-rule:evenodd;clip-rule:evenodd;stroke-linejoin:round;stroke-miterlimit:2;">
    <path d="M552.833,282.026C549.462,288.367 555.851,286.635 561.5,292.138C562.862,293.464 563.45,292.555 564.5,294.075C564.771,294.469 564.438,295.077 564.66,295.5C565.961,297.97 566.507,296.123 568.59,294.386C620.255,339.178 680.814,415.609 678.839,437.528C676.793,460.239 603.067,524.666 562.258,547.066C560.704,547.919 471.636,604.042 332.506,578.465C242.93,561.999 188.377,509.052 146.482,466.517C142.304,462.276 142.6,462.173 134.298,451.638C127.789,440.248 116.456,433.201 171.691,364.656C298.247,207.606 355.64,261.766 393.437,266.928C446.467,274.171 467.423,223.065 552.833,282.026Z" style="fill:rgb(4,33,61);"/>
    <path d="M386.453,412.999C395.786,413.778 399.721,413.687 417.504,413.653L420.502,413.532C426.872,419.319 453.572,416.358 480.434,440.565C487.536,446.964 494.533,464.047 490.659,476.538C467.972,549.685 355.556,561.016 289.452,545.789C271.538,541.663 271.309,542.294 268.5,540.212C267.722,539.635 268.445,539.112 267.5,538.652C266.995,538.406 261.469,535.714 261.221,535.5C260.816,535.15 260.29,534.418 258.5,533.734C251.262,530.968 243.592,526.902 238.089,522.987C237.589,522.832 237.287,522.738 232.786,519.159C207.184,498.795 183.325,472.971 179.332,468.65C171.714,460.405 170.545,448.089 189.553,444.751C229.767,437.69 229.392,436.399 268.565,424.733C285.982,419.547 286.066,420.332 303.491,415.464C321.649,410.391 375.942,414.718 378.501,414.426C380.917,414.15 383.864,415.013 386.453,412.999Z" style="fill:rgb(0,169,243);"/>
    <path d="M499.587,275.314C512.07,283.243 535.587,317.827 507.396,354.428C494.639,370.991 465.461,374.702 461.46,375.21C440.664,377.855 418.696,388.603 375.51,383.422C315.263,376.194 299.229,374.197 245.696,393.951C242.357,395.184 190.899,419.595 179.444,426.402C178.33,427.063 168.552,430.483 167.598,430.817C161.168,433.066 161.233,433.048 160.5,433.291C157.482,434.293 157.37,433.699 154.5,435.022C153.977,435.263 154.016,436.185 153.493,436.426L150.496,436.379L143.688,436.361C143.027,433.81 143.222,433.843 144.135,431.355C144.749,431.633 144.885,432.572 145.5,432.85C146.897,433.482 144.425,430.715 155.35,416.404C161.803,407.952 159.689,406.398 188.38,374.399C203.679,357.334 272.297,286.635 315.588,280.982C368.843,274.028 383.351,307.448 443.706,278.964C458.149,272.149 464.493,271.291 466.399,271.033C466.574,271.009 466.555,270.982 468.5,270.344C469.988,270.874 469.733,271.583 471.5,271.414C472.179,271.349 479.388,270.656 479.998,272.071C482.392,277.619 485.66,272.882 489.736,275.122C493.007,276.919 493.239,276.219 493.5,276.401C496.455,278.459 496.868,277.722 499.587,275.314Z" style="fill:rgb(240,184,0);"/>
    <path d="M420.502,413.532C463.982,408.373 499.39,403.685 552.606,421.224C552.862,421.661 552.245,422.302 552.5,422.739C552.58,422.876 572.095,433.077 571.015,464.492C569.812,499.443 529.89,536.823 504.279,548.055C485.654,556.224 480.84,559.135 462.5,563.59C459.381,564.348 460.206,565.354 459.547,565.861C448.235,567.596 338.653,586.785 240.387,525.703C240.346,525.067 234.323,521.175 234.089,520.987C239.592,523.902 271.538,541.663 289.452,545.789C355.556,561.016 467.972,549.685 490.659,476.538C494.533,464.047 487.536,446.964 480.434,440.565C453.572,416.358 426.872,419.319 420.502,413.532Z" style="fill:rgb(2,135,196);"/>
    <path d="M492.636,270.035C506.644,273.63 510.255,271.867 541.175,291.95C545.315,294.639 554.015,301.322 562.687,309.322C562.66,309.95 561.239,309.872 561.213,310.5C561.087,313.537 592.09,350.121 572.077,382.263C570.028,385.554 554.062,390.724 550.455,391.127C518.103,394.74 501.845,387.744 480.481,390.182C446.793,394.026 446.746,393.937 446.5,394.19C446.382,394.312 446.422,394.327 445.451,396.032C411.959,399.043 411.124,399.694 383.468,397.996C312.824,392.324 304.382,390.523 235.602,413.785C181.787,432.595 170.72,435.881 153.493,436.426C154.016,436.185 153.977,435.263 154.5,435.022C157.37,433.699 157.482,434.293 160.5,433.291C161.233,433.048 161.168,433.066 167.598,430.817C168.552,430.483 178.33,427.063 179.444,426.402C190.899,419.595 242.357,395.184 245.696,393.951C299.229,374.197 315.263,376.194 375.51,383.422C418.696,388.603 440.664,377.855 461.46,375.21C465.461,374.702 494.639,370.991 507.396,354.428C535.587,317.827 512.07,283.243 499.587,275.314C495.803,272.906 495.832,272.912 495.5,272.713C493.766,271.675 494.105,271.408 492.636,270.035Z" style="fill:rgb(214,143,0);"/>
    <path d="M562.687,309.322C606.975,346.295 670.084,429.007 663.226,437.229C655.369,437.02 644.432,441.418 605.475,428.58C525.966,402.378 523.625,390.443 445.451,396.032C446.422,394.327 446.382,394.312 446.5,394.19C446.746,393.937 446.793,394.026 480.481,390.182C501.845,387.744 518.103,394.74 550.455,391.127C554.062,390.724 570.028,385.554 572.077,382.263C592.09,350.121 561.087,313.537 561.213,310.5C561.239,309.872 562.66,309.95 562.687,309.322Z" style="fill:rgb(178,104,0);"/>
    <path d="M552.606,421.224C595.073,432.74 624.324,444.777 658.443,440.086C660.615,439.788 660.516,440.302 662.722,440.532C661.991,441.569 655.487,450.795 653.139,453.177C621.207,485.552 558.764,553.619 459.547,565.861C460.206,565.354 459.381,564.348 462.5,563.59C480.84,559.135 485.654,556.224 504.279,548.055C529.89,536.823 569.812,499.443 571.015,464.492C572.095,433.077 552.58,422.876 552.5,422.739C552.245,422.302 552.862,421.661 552.606,421.224Z" style="fill:rgb(2,107,155);"/>
    <path d="M445.451,396.032C523.625,390.443 525.966,402.378 605.475,428.58C644.432,441.418 655.369,437.02 663.226,437.229C663.058,438.33 662.89,439.431 662.722,440.532C660.516,440.302 660.615,439.788 658.443,440.086C624.324,444.777 595.073,432.74 552.606,421.224C499.39,403.685 463.982,408.373 420.502,413.532L417.504,413.653C417.75,413.474 423.378,409.375 417.5,409.842C416.771,409.9 410.201,410.423 408.454,408.561C404.54,404.39 402.699,408.73 400.646,408.684C398.909,408.645 399.017,408.599 397.318,408.741C395.335,408.907 395.314,409.666 393.474,408.696C391.397,407.601 387.775,409.924 376.45,409.012C370.668,408.546 366.309,406.199 361.48,410.749C328.313,406.773 305.351,408.96 300.492,409.422C237.828,417.71 194.989,442.715 147.46,438.813C148.472,438.001 149.484,437.19 150.496,436.379L153.493,436.426C170.72,435.881 181.787,432.595 235.602,413.785C304.382,390.523 312.824,392.324 383.468,397.996C411.124,399.694 411.959,399.043 445.451,396.032Z" style="fill:rgb(3,33,64);"/>
    <path d="M470.502,268.538C469.834,269.14 469.167,269.742 468.5,270.344C466.555,270.982 466.574,271.009 466.399,271.033C464.493,271.291 458.149,272.149 443.706,278.964C383.351,307.448 368.843,274.028 315.588,280.982C272.297,286.635 203.679,357.334 188.38,374.399C159.689,406.398 161.803,407.952 155.35,416.404C144.425,430.715 146.897,433.482 145.5,432.85C144.885,432.572 144.749,431.633 144.135,431.355C150.224,417.426 160.55,402.876 175.132,384.239C288.838,238.913 340.846,267.874 368.588,276.176C423.981,292.754 434.667,271.624 470.502,268.538Z" style="fill:rgb(245,215,66);"/>
    <path d="M300.492,409.422C305.351,408.96 328.313,406.773 361.48,410.749C371.459,411.833 384.453,412.843 386.453,412.999C383.864,415.013 380.917,414.15 378.501,414.426C375.942,414.718 321.649,410.391 303.491,415.464C286.066,420.332 285.982,419.547 268.565,424.733C229.392,436.399 229.767,437.69 189.553,444.751C170.545,448.089 171.714,460.405 179.332,468.65C183.325,472.971 207.184,498.795 232.786,519.159C237.287,522.738 237.589,522.832 238.089,522.987C238.323,523.175 240.853,525.212 240.871,525.5C240.912,526.135 242.346,526.067 242.387,526.703C181.568,484.831 149.451,447.948 144.364,439.5C145.824,438.637 145.789,438.769 147.46,438.813C194.989,442.715 237.828,417.71 300.492,409.422Z" style="fill:rgb(125,208,246);"/>
    <path d="M314.493,313.452C304.154,316.183 303.594,314.477 260.668,333.899C260.365,334.035 254.664,337.829 255.269,334.484C255.946,330.738 284.594,293.901 318.565,290.929C351.672,288.033 350.947,294.428 397.385,308.78C403.077,310.539 390.973,313.839 379.485,314.135C352.123,314.841 343.332,308.641 314.493,313.452Z" style="fill:rgb(255,229,92);"/>
    <path d="M571.774,612.666C548.887,612.512 549.016,613.182 499.489,614.083C446.657,615.044 293.168,614.306 288.504,614.147C223.115,611.924 216.424,614.121 220.553,610.573C221.673,609.611 390.885,606.539 525.502,609.374C569.943,610.311 573.233,609.254 571.774,612.666Z" style="fill:rgb(182,182,182);"/>
    <path d="M351.498,429.51C369.222,434.511 369.872,435.011 369.282,436.418C366.514,443.022 291.365,456.16 266.332,449.854C261.736,448.696 275.839,438.542 294.452,432.355C320.938,423.551 347.013,428.636 351.498,429.51Z" style="fill:rgb(101,202,250);"/>
    <path d="M361.48,410.749C366.309,406.199 370.668,408.546 376.45,409.012C387.775,409.924 391.397,407.601 393.474,408.696C395.314,409.666 395.335,408.907 397.318,408.741C399.017,408.599 398.909,408.645 400.646,408.684C402.699,408.73 404.54,404.39 408.454,408.561C410.201,410.423 416.771,409.9 417.5,409.842C423.378,409.375 417.75,413.474 417.504,413.653C399.721,413.687 395.786,413.778 386.453,412.999C384.453,412.843 371.459,411.833 361.48,410.749Z" style="fill:rgb(3,33,63);"/>
    <path d="M470.502,268.538C481.691,268.501 481.652,268.001 492.636,270.035C494.105,271.408 493.766,271.675 495.5,272.713C495.832,272.912 495.803,272.906 499.587,275.314C496.868,277.722 496.455,278.459 493.5,276.401C493.239,276.219 493.007,276.919 489.736,275.122C485.66,272.882 482.392,277.619 479.998,272.071C479.388,270.656 472.179,271.349 471.5,271.414C469.733,271.583 469.988,270.874 468.5,270.344C469.167,269.742 469.834,269.14 470.502,268.538Z" style="fill:rgb(240,184,0);"/>
    <path d="M552.833,282.026C560.947,287.999 560.921,287.875 568.59,294.386C566.507,296.123 565.961,297.97 564.66,295.5C564.438,295.077 564.771,294.469 564.5,294.075C563.45,292.555 562.862,293.464 561.5,292.138C555.851,286.635 549.462,288.367 552.833,282.026Z" style="fill:rgb(13,34,64);"/>
    <path d="M143.688,436.361L150.496,436.379C149.484,437.19 148.472,438.001 147.46,438.813C145.789,438.769 145.824,438.637 144.364,439.5C143.72,437.935 143.823,438.022 143.688,436.361Z" style="fill:rgb(15,83,127);"/>
    <path d="M305.686,560.676C301.826,562.933 302.487,560.052 302.684,559.902C302.932,559.713 303.226,559.296 303.5,559.444C304.422,559.942 303.751,560.454 304.703,560.991C305.255,561.302 305.123,560.359 305.686,560.676Z" style="fill:rgb(2,31,61);"/>
    <path d="M134.528,427.51C132.959,426.575 132.818,426.657 132.834,426.5C132.991,424.947 133.918,424.781 134.5,426.152C134.677,426.569 134.351,427.093 134.528,427.51Z" style="fill:rgb(5,31,55);"/>
    <path d="M517.615,408.82C521.508,409.281 521.747,409.098 521.695,409.424C521.448,410.965 520.903,409.807 519.508,409.225C519.508,409.225 517.767,408.853 517.615,408.82Z" style="fill:rgb(7,29,54);"/>
</svg>
